<?xml version="1.0" encoding="UTF-8" standalone="no"?>
<!DOCTYPE svg PUBLIC "-//W3C//DTD SVG 1.1//EN"
 "http://www.w3.org/Graphics/SVG/1.1/DTD/svg11.dtd">
<!-- Generated by graphviz version 2.40.1 (20161225.0304)
 -->
<!-- Title: %0 Pages: 1 -->
<svg width="1212pt" height="1090pt"
 viewBox="0.00 0.00 1212.35 1090.20" xmlns="http://www.w3.org/2000/svg" xmlns:xlink="http://www.w3.org/1999/xlink">
<g id="graph0" class="graph" transform="scale(1 1) rotate(0) translate(4 1086.2)">
<title>%0</title>
<polygon fill="#ffffff" stroke="transparent" points="-4,4 -4,-1086.2 1208.3486,-1086.2 1208.3486,4 -4,4"/>
<g id="clust1" class="cluster">
<title>cluster_0</title>
<polygon fill="none" stroke="#000000" points="8,-8 8,-1003.4 415,-1003.4 415,-8 8,-8"/>
</g>
<g id="clust3" class="cluster">
<title>cluster_1</title>
<polygon fill="none" stroke="#000000" points="423,-385.4 423,-615 693,-615 693,-385.4 423,-385.4"/>
</g>
<g id="clust4" class="cluster">
<title>cluster_2</title>
<polygon fill="none" stroke="#000000" points="701,-312.4 701,-526.2 959,-526.2 959,-312.4 701,-312.4"/>
</g>
<g id="clust5" class="cluster">
<title>cluster_legend</title>
<polygon fill="none" stroke="#000000" points="535,-905.4 535,-1074.2 847,-1074.2 847,-905.4 535,-905.4"/>
<text text-anchor="middle" x="691" y="-1057.6" font-family="Times,serif" font-size="14.00" fill="#000000">Legend</text>
</g>
<!-- IDLE -->
<g id="node1" class="node">
<title>IDLE</title>
<ellipse fill="none" stroke="#000000" cx="118" cy="-977.4" rx="33.043" ry="18"/>
<text text-anchor="middle" x="118" y="-973.2" font-family="Times,serif" font-size="14.00" fill="#000000">IDLE</text>
</g>
<!-- READY -->
<g id="node2" class="node">
<title>READY</title>
<ellipse fill="none" stroke="#000000" cx="243" cy="-804.6" rx="44.0814" ry="18"/>
<text text-anchor="middle" x="243" y="-800.4" font-family="Times,serif" font-size="14.00" fill="#000000">READY</text>
</g>
<!-- IDLE&#45;&gt;READY -->
<g id="edge12" class="edge">
<title>IDLE&#45;&gt;READY</title>
<path fill="none" stroke="#ffa500" d="M112.4228,-959.3246C105.963,-934.6117 98.5535,-889.8959 118.366,-859.6 134.6078,-834.7642 164.868,-821.0614 191.5036,-813.5447"/>
<polygon fill="#ffa500" stroke="#ffa500" points="192.6947,-816.8518 201.4978,-810.9564 190.9396,-810.0754 192.6947,-816.8518"/>
<text text-anchor="middle" x="162.317" y="-863.8" font-family="Times,serif" font-size="14.00" fill="#000000">all keys pressed</text>
</g>
<!-- READY&#45;&gt;IDLE -->
<g id="edge8" class="edge">
<title>READY&#45;&gt;IDLE</title>
<path fill="none" stroke="#ff0000" d="M236.8697,-822.5385C231.3011,-837.5854 222.248,-859.2962 211,-876.4 191.3734,-906.2443 162.8571,-935.7573 142.5839,-955.1004"/>
<polygon fill="#ff0000" stroke="#ff0000" points="140.1395,-952.5946 135.2533,-961.9954 144.9355,-957.6935 140.1395,-952.5946"/>
<text text-anchor="middle" x="269.56" y="-863.8" font-family="Times,serif" font-size="14.00" fill="#000000">superchord active</text>
</g>
<!-- ACTIVATED -->
<g id="node3" class="node">
<title>ACTIVATED</title>
<ellipse fill="none" stroke="#000000" cx="328" cy="-677.8" rx="66.0512" ry="18"/>
<text text-anchor="middle" x="328" y="-673.6" font-family="Times,serif" font-size="14.00" fill="#000000">ACTIVATED</text>
</g>
<!-- READY&#45;&gt;ACTIVATED -->
<g id="edge15" class="edge">
<title>READY&#45;&gt;ACTIVATED</title>
<path fill="none" stroke="#ffa500" d="M254.8189,-786.969C269.2009,-765.5144 293.62,-729.0868 310.2614,-704.2619"/>
<polygon fill="#ffa500" stroke="#ffa500" points="313.3465,-705.9453 316.0075,-695.69 307.532,-702.0475 313.3465,-705.9453"/>
<text text-anchor="middle" x="321.4611" y="-737" font-family="Times,serif" font-size="14.00" fill="#000000">chord timer</text>
</g>
<!-- DEACTIVATED -->
<g id="node4" class="node">
<title>DEACTIVATED</title>
<ellipse fill="none" stroke="#000000" cx="328" cy="-500.2" rx="79.2922" ry="18"/>
<text text-anchor="middle" x="328" y="-496" font-family="Times,serif" font-size="14.00" fill="#000000">DEACTIVATED</text>
</g>
<!-- ACTIVATED&#45;&gt;DEACTIVATED -->
<g id="edge19" class="edge">
<title>ACTIVATED&#45;&gt;DEACTIVATED</title>
<path fill="none" stroke="#a020f0" d="M328,-659.7934C328,-628.812 328,-565.206 328,-528.3346"/>
<polygon fill="#a020f0" stroke="#a020f0" points="331.5001,-528.2542 328,-518.2543 324.5001,-528.2543 331.5001,-528.2542"/>
<text text-anchor="middle" x="359.4881" y="-584.8" font-family="Times,serif" font-size="14.00" fill="#000000">a key lifted</text>
</g>
<!-- PRESS_FROM_ACTIVE -->
<g id="node9" class="node">
<title>PRESS_FROM_ACTIVE</title>
<ellipse fill="none" stroke="#000000" cx="558" cy="-589" rx="111.797" ry="18"/>
<text text-anchor="middle" x="558" y="-584.8" font-family="Times,serif" font-size="14.00" fill="#000000">PRESS_FROM_ACTIVE</text>
</g>
<!-- ACTIVATED&#45;&gt;PRESS_FROM_ACTIVE -->
<g id="edge5" class="edge">
<title>ACTIVATED&#45;&gt;PRESS_FROM_ACTIVE</title>
<path fill="none" stroke="#00ff00" d="M358.9462,-661.7884C381.2166,-650.6291 412.1668,-635.8558 440.3092,-625 456.6405,-618.7003 474.5716,-612.7459 491.4062,-607.561"/>
<polygon fill="#00ff00" stroke="#00ff00" points="492.6169,-610.8513 501.1711,-604.6003 490.5857,-604.1525 492.6169,-610.8513"/>
<text text-anchor="middle" x="472.8454" y="-629.2" font-family="Times,serif" font-size="14.00" fill="#000000">dance timer</text>
</g>
<!-- ACTIVATED&#45;&gt;PRESS_FROM_ACTIVE -->
<g id="edge17" class="edge">
<title>ACTIVATED&#45;&gt;PRESS_FROM_ACTIVE</title>
<path fill="none" stroke="#ffa500" d="M387.14,-669.6422C430.7115,-662.9275 485.761,-652.7594 506,-641.8 518.3194,-635.129 529.5668,-624.5802 538.4252,-614.6594"/>
<polygon fill="#ffa500" stroke="#ffa500" points="541.1885,-616.8124 544.9921,-606.9239 535.8521,-612.2822 541.1885,-616.8124"/>
<text text-anchor="middle" x="552.8552" y="-629.2" font-family="Times,serif" font-size="14.00" fill="#000000">lock next</text>
</g>
<!-- IDLE_IN_DANCE -->
<g id="node5" class="node">
<title>IDLE_IN_DANCE</title>
<ellipse fill="none" stroke="#000000" cx="228" cy="-338.4" rx="86.2367" ry="18"/>
<text text-anchor="middle" x="228" y="-334.2" font-family="Times,serif" font-size="14.00" fill="#000000">IDLE_IN_DANCE</text>
</g>
<!-- DEACTIVATED&#45;&gt;IDLE_IN_DANCE -->
<g id="edge3" class="edge">
<title>DEACTIVATED&#45;&gt;IDLE_IN_DANCE</title>
<path fill="none" stroke="#000000" d="M329.9341,-482.1407C331.5726,-457.9365 331.0599,-414.6409 311,-385.4 303.4604,-374.4097 292.4576,-365.6843 280.9146,-358.886"/>
<polygon fill="#000000" stroke="#000000" points="282.4881,-355.7577 272.0306,-354.0574 279.1453,-361.908 282.4881,-355.7577"/>
</g>
<!-- READY_IN_DANCE -->
<g id="node6" class="node">
<title>READY_IN_DANCE</title>
<ellipse fill="none" stroke="#000000" cx="133" cy="-500.2" rx="97.2741" ry="18"/>
<text text-anchor="middle" x="133" y="-496" font-family="Times,serif" font-size="14.00" fill="#000000">READY_IN_DANCE</text>
</g>
<!-- IDLE_IN_DANCE&#45;&gt;READY_IN_DANCE -->
<g id="edge13" class="edge">
<title>IDLE_IN_DANCE&#45;&gt;READY_IN_DANCE</title>
<path fill="none" stroke="#ffa500" d="M225.2463,-356.5101C221.7588,-375.6375 214.5057,-406.1809 201,-429.4 190.9716,-446.6409 175.9009,-462.9148 162.4941,-475.5026"/>
<polygon fill="#ffa500" stroke="#ffa500" points="159.8818,-473.1476 154.8432,-482.4676 164.5941,-478.3239 159.8818,-473.1476"/>
<text text-anchor="middle" x="262.317" y="-407.2" font-family="Times,serif" font-size="14.00" fill="#000000">all keys pressed</text>
</g>
<!-- FINISHED -->
<g id="node7" class="node">
<title>FINISHED</title>
<ellipse fill="none" stroke="#000000" cx="276" cy="-195.8" rx="55.0323" ry="18"/>
<text text-anchor="middle" x="276" y="-191.6" font-family="Times,serif" font-size="14.00" fill="#000000">FINISHED</text>
</g>
<!-- IDLE_IN_DANCE&#45;&gt;FINISHED -->
<g id="edge6" class="edge">
<title>IDLE_IN_DANCE&#45;&gt;FINISHED</title>
<path fill="none" stroke="#00ff00" d="M234.0792,-320.3396C242.3024,-295.91 257.0467,-252.107 266.6756,-223.5011"/>
<polygon fill="#00ff00" stroke="#00ff00" points="270.097,-224.3078 269.9701,-213.7137 263.4628,-222.0747 270.097,-224.3078"/>
<text text-anchor="middle" x="288.8454" y="-255" font-family="Times,serif" font-size="14.00" fill="#000000">dance timer</text>
</g>
<!-- READY_IN_DANCE&#45;&gt;ACTIVATED -->
<g id="edge16" class="edge">
<title>READY_IN_DANCE&#45;&gt;ACTIVATED</title>
<path fill="none" stroke="#ffa500" d="M152.4187,-517.8859C187.5514,-549.8838 261.7035,-617.4192 301.4737,-653.6406"/>
<polygon fill="#ffa500" stroke="#ffa500" points="299.1975,-656.3017 308.9475,-660.4476 303.911,-651.1264 299.1975,-656.3017"/>
<text text-anchor="middle" x="288.4611" y="-584.8" font-family="Times,serif" font-size="14.00" fill="#000000">chord timer</text>
</g>
<!-- READY_IN_DANCE&#45;&gt;IDLE_IN_DANCE -->
<g id="edge9" class="edge">
<title>READY_IN_DANCE&#45;&gt;IDLE_IN_DANCE</title>
<path fill="none" stroke="#ff0000" d="M119.7084,-482.3193C103.6316,-458.3176 81.1481,-415.2506 101.88,-385.4 109.5964,-374.2896 136.1307,-363.6152 162.8829,-355.2551"/>
<polygon fill="#ff0000" stroke="#ff0000" points="164.1549,-358.527 172.7144,-352.2832 162.1294,-351.8265 164.1549,-358.527"/>
<text text-anchor="middle" x="150.56" y="-407.2" font-family="Times,serif" font-size="14.00" fill="#000000">superchord active</text>
</g>
<!-- RESTART -->
<g id="node8" class="node">
<title>RESTART</title>
<ellipse fill="none" stroke="#000000" cx="353" cy="-34" rx="53.9098" ry="18"/>
<text text-anchor="middle" x="353" y="-29.8" font-family="Times,serif" font-size="14.00" fill="#000000">RESTART</text>
</g>
<!-- FINISHED&#45;&gt;RESTART -->
<g id="edge1" class="edge">
<title>FINISHED&#45;&gt;RESTART</title>
<path fill="none" stroke="#000000" d="M284.5345,-177.8664C298.0058,-149.5593 324.2864,-94.3359 340.0793,-61.1502"/>
<polygon fill="#000000" stroke="#000000" points="343.2904,-62.5476 344.4272,-52.014 336.9696,-59.5396 343.2904,-62.5476"/>
</g>
<!-- RESTART&#45;&gt;IDLE -->
<g id="edge2" class="edge">
<title>RESTART&#45;&gt;IDLE</title>
<path fill="none" stroke="#000000" d="M299.7598,-37.0685C205.0169,-43.9982 17,-65.0281 17,-122.8 17,-868 17,-868 17,-868 17,-908.8787 55.5415,-940.9998 85.0075,-959.5838"/>
<polygon fill="#000000" stroke="#000000" points="83.4408,-962.7267 93.808,-964.9113 87.0659,-956.7385 83.4408,-962.7267"/>
</g>
<!-- PRESS_FROM_ACTIVE&#45;&gt;RESTART -->
<g id="edge20" class="edge">
<title>PRESS_FROM_ACTIVE&#45;&gt;RESTART</title>
<path fill="none" stroke="#a020f0" d="M663.2554,-582.6445C766.4867,-574.6695 915.1456,-557.9984 963,-526.2 974.3009,-518.6908 979,-513.7683 979,-500.2 979,-500.2 979,-500.2 979,-122.8 979,-66.4432 576.1426,-43.3599 416.7809,-36.4334"/>
<polygon fill="#a020f0" stroke="#a020f0" points="416.7833,-32.9304 406.643,-36.0003 416.4845,-39.924 416.7833,-32.9304"/>
<text text-anchor="middle" x="1010.4881" y="-289.8" font-family="Times,serif" font-size="14.00" fill="#000000">a key lifted</text>
</g>
<!-- FINISHED_FROM_ACTIVE -->
<g id="node10" class="node">
<title>FINISHED_FROM_ACTIVE</title>
<ellipse fill="none" stroke="#000000" cx="558" cy="-411.4" rx="127.3672" ry="18"/>
<text text-anchor="middle" x="558" y="-407.2" font-family="Times,serif" font-size="14.00" fill="#000000">FINISHED_FROM_ACTIVE</text>
</g>
<!-- PRESS_FROM_ACTIVE&#45;&gt;FINISHED_FROM_ACTIVE -->
<g id="edge7" class="edge">
<title>PRESS_FROM_ACTIVE&#45;&gt;FINISHED_FROM_ACTIVE</title>
<path fill="none" stroke="#00ff00" d="M558,-570.9934C558,-540.012 558,-476.406 558,-439.5346"/>
<polygon fill="#00ff00" stroke="#00ff00" points="561.5001,-439.4542 558,-429.4543 554.5001,-439.4543 561.5001,-439.4542"/>
<text text-anchor="middle" x="590.8454" y="-496" font-family="Times,serif" font-size="14.00" fill="#000000">dance timer</text>
</g>
<!-- LOCKED -->
<g id="node11" class="node">
<title>LOCKED</title>
<ellipse fill="none" stroke="#000000" cx="759" cy="-500.2" rx="50.38" ry="18"/>
<text text-anchor="middle" x="759" y="-496" font-family="Times,serif" font-size="14.00" fill="#000000">LOCKED</text>
</g>
<!-- PRESS_FROM_ACTIVE&#45;&gt;LOCKED -->
<g id="edge18" class="edge">
<title>PRESS_FROM_ACTIVE&#45;&gt;LOCKED</title>
<path fill="none" stroke="#ffa500" d="M596.7548,-571.8785C631.4784,-556.5379 682.2577,-534.1041 717.7303,-518.4326"/>
<polygon fill="#ffa500" stroke="#ffa500" points="719.5707,-521.4459 727.3034,-514.2033 716.7419,-515.0429 719.5707,-521.4459"/>
<text text-anchor="middle" x="701.8552" y="-540.4" font-family="Times,serif" font-size="14.00" fill="#000000">lock next</text>
</g>
<!-- FINISHED_FROM_ACTIVE&#45;&gt;DEACTIVATED -->
<g id="edge21" class="edge">
<title>FINISHED_FROM_ACTIVE&#45;&gt;DEACTIVATED</title>
<path fill="none" stroke="#a020f0" d="M514.1905,-428.3143C475.2643,-443.3432 418.3994,-465.298 377.7677,-480.9853"/>
<polygon fill="#a020f0" stroke="#a020f0" points="376.3944,-477.7637 368.3261,-484.6306 378.9156,-484.2939 376.3944,-477.7637"/>
<text text-anchor="middle" x="494.4881" y="-451.6" font-family="Times,serif" font-size="14.00" fill="#000000">a key lifted</text>
</g>
<!-- READY_LOCKED -->
<g id="node12" class="node">
<title>READY_LOCKED</title>
<ellipse fill="none" stroke="#000000" cx="797" cy="-338.4" rx="88.0442" ry="18"/>
<text text-anchor="middle" x="797" y="-334.2" font-family="Times,serif" font-size="14.00" fill="#000000">READY_LOCKED</text>
</g>
<!-- LOCKED&#45;&gt;READY_LOCKED -->
<g id="edge11" class="edge">
<title>LOCKED&#45;&gt;READY_LOCKED</title>
<path fill="none" stroke="#ffa500" d="M746.4035,-482.5887C731.4035,-459.2621 710.3862,-417.3463 727.366,-385.4 732.7664,-375.2396 741.4512,-366.878 750.8834,-360.1713"/>
<polygon fill="#ffa500" stroke="#ffa500" points="752.8238,-363.0845 759.3008,-354.7001 749.0089,-357.2154 752.8238,-363.0845"/>
<text text-anchor="middle" x="771.317" y="-407.2" font-family="Times,serif" font-size="14.00" fill="#000000">all keys pressed</text>
</g>
<!-- READY_LOCKED&#45;&gt;RESTART -->
<g id="edge14" class="edge">
<title>READY_LOCKED&#45;&gt;RESTART</title>
<path fill="none" stroke="#ffa500" d="M716.6828,-330.8747C597.5711,-318.6142 388,-292.3343 388,-259.2 388,-259.2 388,-259.2 388,-122.8 388,-100.8487 378.6284,-77.8379 369.5839,-60.7418"/>
<polygon fill="#ffa500" stroke="#ffa500" points="372.58,-58.928 364.6545,-51.8968 366.4654,-62.3357 372.58,-58.928"/>
<text text-anchor="middle" x="420.4611" y="-191.6" font-family="Times,serif" font-size="14.00" fill="#000000">chord timer</text>
</g>
<!-- READY_LOCKED&#45;&gt;LOCKED -->
<g id="edge10" class="edge">
<title>READY_LOCKED&#45;&gt;LOCKED</title>
<path fill="none" stroke="#ff0000" d="M808.2227,-356.4274C812.8472,-364.887 817.6637,-375.3108 820,-385.4 824.4116,-404.4515 826.8081,-411.0678 820,-429.4 813.2478,-447.5815 799.501,-464.2206 786.764,-476.7936"/>
<polygon fill="#ff0000" stroke="#ff0000" points="784.3099,-474.2971 779.4418,-483.7073 789.1157,-479.3867 784.3099,-474.2971"/>
<text text-anchor="middle" x="873.56" y="-407.2" font-family="Times,serif" font-size="14.00" fill="#000000">superchord active</text>
</g>
<!-- IN_ONE_SHOT -->
<g id="node13" class="node">
<title>IN_ONE_SHOT</title>
<ellipse fill="none" stroke="#000000" cx="1083" cy="-122.8" rx="75.8643" ry="18"/>
<text text-anchor="middle" x="1083" y="-118.6" font-family="Times,serif" font-size="14.00" fill="#000000">IN_ONE_SHOT</text>
</g>
<!-- IN_ONE_SHOT&#45;&gt;RESTART -->
<g id="edge4" class="edge">
<title>IN_ONE_SHOT&#45;&gt;RESTART</title>
<path fill="none" stroke="#0000ff" d="M1060.369,-105.3982C1042.9746,-93.0885 1017.7982,-77.4913 993,-70 938.9453,-53.6706 568.3225,-40.6055 417.0705,-35.8927"/>
<polygon fill="#0000ff" stroke="#0000ff" points="417.1019,-32.3921 406.9984,-35.5812 416.8854,-39.3888 417.1019,-32.3921"/>
<text text-anchor="middle" x="1116.6743" y="-74.2" font-family="Times,serif" font-size="14.00" fill="#000000">non&#45;one&#45;shot key went through</text>
</g>
<!-- key -->
<g id="node14" class="node">
<title>key</title>
<text text-anchor="start" x="644.6844" y="-1022.8" font-family="Times,serif" font-size="14.00" fill="#000000">automated</text>
<text text-anchor="start" x="612.0126" y="-1002.8" font-family="Times,serif" font-size="14.00" fill="#000000">kill_one_shots()</text>
<text text-anchor="start" x="554.5104" y="-982.8" font-family="Times,serif" font-size="14.00" fill="#000000">process_finished_dances()</text>
<text text-anchor="start" x="587.934" y="-962.8" font-family="Times,serif" font-size="14.00" fill="#000000">remove_subchords()</text>
<text text-anchor="start" x="569.2902" y="-942.8" font-family="Times,serif" font-size="14.00" fill="#000000">process_ready_chords()</text>
<text text-anchor="start" x="552.5946" y="-922.8" font-family="Times,serif" font-size="14.00" fill="#000000">deactivate_active_chords()</text>
</g>
<!-- key2 -->
<g id="node15" class="node">
<title>key2</title>
<text text-anchor="start" x="807.9197" y="-1022.8" font-family="Times,serif" font-size="14.00" fill="#000000"> </text>
<text text-anchor="start" x="807.9197" y="-1002.8" font-family="Times,serif" font-size="14.00" fill="#000000"> </text>
<text text-anchor="start" x="807.9197" y="-982.8" font-family="Times,serif" font-size="14.00" fill="#000000"> </text>
<text text-anchor="start" x="807.9197" y="-962.8" font-family="Times,serif" font-size="14.00" fill="#000000"> </text>
<text text-anchor="start" x="807.9197" y="-942.8" font-family="Times,serif" font-size="14.00" fill="#000000"> </text>
<text text-anchor="start" x="807.9197" y="-922.8" font-family="Times,serif" font-size="14.00" fill="#000000"> </text>
</g>
<!-- key&#45;&gt;key2 -->
<g id="edge22" class="edge">
<title>key:e&#45;&gt;key2:w</title>
<path fill="none" stroke="#000000" d="M705,-1027.4C746.2066,-1027.4 759.0434,-1027.4 795.5956,-1027.4"/>
<polygon fill="#000000" stroke="#000000" points="796,-1030.9001 806,-1027.4 796,-1023.9001 796,-1030.9001"/>
</g>
<!-- key&#45;&gt;key2 -->
<g id="edge23" class="edge">
<title>key:e&#45;&gt;key2:w</title>
<path fill="none" stroke="#0000ff" d="M705,-1007.4C746.2066,-1007.4 759.0434,-1007.4 795.5956,-1007.4"/>
<polygon fill="#0000ff" stroke="#0000ff" points="796,-1010.9001 806,-1007.4 796,-1003.9001 796,-1010.9001"/>
</g>
<!-- key&#45;&gt;key2 -->
<g id="edge24" class="edge">
<title>key:e&#45;&gt;key2:w</title>
<path fill="none" stroke="#00ff00" d="M705,-987.4C746.2066,-987.4 759.0434,-987.4 795.5956,-987.4"/>
<polygon fill="#00ff00" stroke="#00ff00" points="796,-990.9001 806,-987.4 796,-983.9001 796,-990.9001"/>
</g>
<!-- key&#45;&gt;key2 -->
<g id="edge25" class="edge">
<title>key:e&#45;&gt;key2:w</title>
<path fill="none" stroke="#ff0000" d="M705,-967.4C746.2066,-967.4 759.0434,-967.4 795.5956,-967.4"/>
<polygon fill="#ff0000" stroke="#ff0000" points="796,-970.9001 806,-967.4 796,-963.9001 796,-970.9001"/>
</g>
<!-- key&#45;&gt;key2 -->
<g id="edge26" class="edge">
<title>key:e&#45;&gt;key2:w</title>
<path fill="none" stroke="#ffa500" d="M705,-947.4C746.2066,-947.4 759.0434,-947.4 795.5956,-947.4"/>
<polygon fill="#ffa500" stroke="#ffa500" points="796,-950.9001 806,-947.4 796,-943.9001 796,-950.9001"/>
</g>
<!-- key&#45;&gt;key2 -->
<g id="edge27" class="edge">
<title>key:e&#45;&gt;key2:w</title>
<path fill="none" stroke="#a020f0" d="M705,-927.4C746.2066,-927.4 759.0434,-927.4 795.5956,-927.4"/>
<polygon fill="#a020f0" stroke="#a020f0" points="796,-930.9001 806,-927.4 796,-923.9001 796,-930.9001"/>
</g>
</g>
</svg>
